<mxfile host="app.diagrams.net" modified="2023-12-10T02:33:10.612Z" agent="Mozilla/5.0 (Macintosh; Intel Mac OS X 10_15_7) AppleWebKit/537.36 (KHTML, like Gecko) Chrome/120.0.0.0 Safari/537.36 Edg/120.0.0.0" etag="oasHK3QJxudahqJLYliu" version="22.1.7" type="github">
  <diagram name="第 1 页" id="aBAtC7C85wRrQgK5SBA-">
    <mxGraphModel dx="804" dy="733" grid="1" gridSize="10" guides="1" tooltips="1" connect="1" arrows="1" fold="1" page="1" pageScale="1" pageWidth="827" pageHeight="1169" math="0" shadow="0">
      <root>
        <mxCell id="0" />
        <mxCell id="1" parent="0" />
        <mxCell id="pVMCiTDg7z46em1MxIxY-14" value="" style="rounded=1;whiteSpace=wrap;html=1;fillStyle=auto;dashed=1;glass=0;perimeterSpacing=0;resizeHeight=0;fillColor=#dae8fc;strokeColor=#6c8ebf;" parent="1" vertex="1">
          <mxGeometry x="189" y="9" width="271" height="230" as="geometry" />
        </mxCell>
        <mxCell id="pVMCiTDg7z46em1MxIxY-2" value="" style="rounded=1;whiteSpace=wrap;html=1;fillColor=#f5f5f5;fontColor=#333333;strokeColor=#666666;" parent="1" vertex="1">
          <mxGeometry x="198" y="17.00000000000002" width="110" height="110" as="geometry" />
        </mxCell>
        <mxCell id="pVMCiTDg7z46em1MxIxY-6" value="" style="strokeWidth=2;html=1;shape=mxgraph.flowchart.document2;whiteSpace=wrap;size=0.25;fillColor=#d5e8d4;strokeColor=#82b366;" parent="1" vertex="1">
          <mxGeometry x="32" y="132" width="100" height="60" as="geometry" />
        </mxCell>
        <mxCell id="pVMCiTDg7z46em1MxIxY-7" value="" style="strokeWidth=2;html=1;shape=mxgraph.flowchart.document2;whiteSpace=wrap;size=0.25;fillColor=#dae8fc;strokeColor=#6c8ebf;" parent="1" vertex="1">
          <mxGeometry x="42" y="142" width="100" height="60" as="geometry" />
        </mxCell>
        <mxCell id="pVMCiTDg7z46em1MxIxY-8" value="Document&lt;sub&gt;1&lt;/sub&gt;" style="strokeWidth=2;html=1;shape=mxgraph.flowchart.document2;whiteSpace=wrap;size=0.25;fillColor=#fff2cc;strokeColor=#d6b656;" parent="1" vertex="1">
          <mxGeometry x="52" y="152" width="100" height="60" as="geometry" />
        </mxCell>
        <mxCell id="pVMCiTDg7z46em1MxIxY-9" value="S1: [x&lt;sub&gt;1&lt;/sub&gt;] [x&lt;sub&gt;2&lt;/sub&gt;] [x&lt;sub&gt;3&lt;/sub&gt;]" style="rounded=1;whiteSpace=wrap;html=1;strokeWidth=2;fillColor=#f5f5f5;fontColor=#333333;strokeColor=#666666;" parent="1" vertex="1">
          <mxGeometry x="32" y="253" width="120" height="20" as="geometry" />
        </mxCell>
        <mxCell id="pVMCiTDg7z46em1MxIxY-11" value="S2: [y&lt;sub&gt;1&lt;/sub&gt;] &lt;span style=&quot;background-color: rgb(245, 167, 167);&quot;&gt;[&lt;font style=&quot;&quot; color=&quot;#cc0000&quot;&gt;&lt;b&gt;y&lt;sub&gt;2&lt;/sub&gt;&lt;/b&gt;&lt;/font&gt;]&lt;/span&gt; [y&lt;sub&gt;3&lt;/sub&gt;]" style="rounded=1;whiteSpace=wrap;html=1;strokeWidth=2;fillColor=#f5f5f5;fontColor=#333333;strokeColor=#666666;" parent="1" vertex="1">
          <mxGeometry x="32" y="277" width="120" height="20" as="geometry" />
        </mxCell>
        <mxCell id="pVMCiTDg7z46em1MxIxY-12" value="S3: [z&lt;sub&gt;1&lt;/sub&gt;] [z&lt;sub&gt;2&lt;/sub&gt;]&amp;nbsp;" style="rounded=1;whiteSpace=wrap;html=1;strokeWidth=2;fillColor=#f5f5f5;fontColor=#333333;strokeColor=#666666;" parent="1" vertex="1">
          <mxGeometry x="32" y="301" width="120" height="20" as="geometry" />
        </mxCell>
        <mxCell id="pVMCiTDg7z46em1MxIxY-26" value="" style="edgeStyle=none;orthogonalLoop=1;jettySize=auto;html=1;rounded=0;" parent="1" edge="1">
          <mxGeometry width="100" relative="1" as="geometry">
            <mxPoint x="460" y="315" as="sourcePoint" />
            <mxPoint x="486" y="278" as="targetPoint" />
            <Array as="points" />
          </mxGeometry>
        </mxCell>
        <mxCell id="pVMCiTDg7z46em1MxIxY-93" value="global" style="edgeLabel;html=1;align=center;verticalAlign=middle;resizable=0;points=[];labelBackgroundColor=none;" parent="pVMCiTDg7z46em1MxIxY-26" vertex="1" connectable="0">
          <mxGeometry x="-0.248" y="2" relative="1" as="geometry">
            <mxPoint x="12" y="13" as="offset" />
          </mxGeometry>
        </mxCell>
        <mxCell id="pVMCiTDg7z46em1MxIxY-27" value="" style="edgeStyle=none;orthogonalLoop=1;jettySize=auto;html=1;rounded=0;" parent="1" edge="1">
          <mxGeometry width="100" relative="1" as="geometry">
            <mxPoint x="460" y="145" as="sourcePoint" />
            <mxPoint x="483" y="183" as="targetPoint" />
            <Array as="points" />
          </mxGeometry>
        </mxCell>
        <mxCell id="pVMCiTDg7z46em1MxIxY-92" value="local" style="edgeLabel;html=1;align=center;verticalAlign=middle;resizable=0;points=[];labelBackgroundColor=none;" parent="pVMCiTDg7z46em1MxIxY-27" vertex="1" connectable="0">
          <mxGeometry x="-0.2427" y="1" relative="1" as="geometry">
            <mxPoint x="9" y="-12" as="offset" />
          </mxGeometry>
        </mxCell>
        <mxCell id="pVMCiTDg7z46em1MxIxY-28" value="" style="edgeStyle=none;orthogonalLoop=1;jettySize=auto;html=1;rounded=0;" parent="1" edge="1">
          <mxGeometry width="100" relative="1" as="geometry">
            <mxPoint x="156" y="258" as="sourcePoint" />
            <mxPoint x="186" y="188" as="targetPoint" />
            <Array as="points" />
          </mxGeometry>
        </mxCell>
        <mxCell id="pVMCiTDg7z46em1MxIxY-31" value="" style="edgeStyle=none;orthogonalLoop=1;jettySize=auto;html=1;rounded=0;" parent="1" edge="1">
          <mxGeometry width="100" relative="1" as="geometry">
            <mxPoint x="156" y="311" as="sourcePoint" />
            <mxPoint x="186" y="348" as="targetPoint" />
            <Array as="points" />
          </mxGeometry>
        </mxCell>
        <mxCell id="pVMCiTDg7z46em1MxIxY-33" value="" style="rounded=1;whiteSpace=wrap;html=1;fillColor=#d5e8d4;strokeColor=#82b366;" parent="1" vertex="1">
          <mxGeometry x="340.24" y="120.10000000000002" width="110" height="110" as="geometry" />
        </mxCell>
        <mxCell id="pVMCiTDg7z46em1MxIxY-37" value="" style="edgeStyle=none;orthogonalLoop=1;jettySize=auto;html=1;rounded=0;entryX=-0.024;entryY=0.115;entryDx=0;entryDy=0;entryPerimeter=0;exitX=1;exitY=1;exitDx=0;exitDy=0;" parent="1" source="pVMCiTDg7z46em1MxIxY-2" target="pVMCiTDg7z46em1MxIxY-33" edge="1">
          <mxGeometry width="100" relative="1" as="geometry">
            <mxPoint x="303" y="64.10000000000002" as="sourcePoint" />
            <mxPoint x="333" y="104.10000000000002" as="targetPoint" />
            <Array as="points" />
          </mxGeometry>
        </mxCell>
        <mxCell id="pVMCiTDg7z46em1MxIxY-99" value="Prune" style="edgeLabel;html=1;align=center;verticalAlign=middle;resizable=0;points=[];labelBackgroundColor=#dae8fc;" parent="pVMCiTDg7z46em1MxIxY-37" vertex="1" connectable="0">
          <mxGeometry x="-0.4236" relative="1" as="geometry">
            <mxPoint x="-16" y="13" as="offset" />
          </mxGeometry>
        </mxCell>
        <mxCell id="pVMCiTDg7z46em1MxIxY-44" value="" style="ellipse;whiteSpace=wrap;html=1;aspect=fixed;fillColor=#f8cecc;strokeColor=#b85450;" parent="1" vertex="1">
          <mxGeometry x="233" y="20.00000000000002" width="28" height="28" as="geometry" />
        </mxCell>
        <mxCell id="pVMCiTDg7z46em1MxIxY-45" value="" style="ellipse;whiteSpace=wrap;html=1;aspect=fixed;fillColor=#1ba1e2;fontColor=#ffffff;strokeColor=#006EAF;" parent="1" vertex="1">
          <mxGeometry x="276" y="60.00000000000003" width="28" height="28" as="geometry" />
        </mxCell>
        <mxCell id="pVMCiTDg7z46em1MxIxY-46" value="" style="ellipse;whiteSpace=wrap;html=1;aspect=fixed;fillColor=#60a917;fontColor=#ffffff;strokeColor=#2D7600;" parent="1" vertex="1">
          <mxGeometry x="204" y="94.00000000000003" width="28" height="28" as="geometry" />
        </mxCell>
        <mxCell id="pVMCiTDg7z46em1MxIxY-48" value="" style="endArrow=none;html=1;rounded=0;entryX=0.5;entryY=1;entryDx=0;entryDy=0;exitX=1;exitY=0;exitDx=0;exitDy=0;" parent="1" source="pVMCiTDg7z46em1MxIxY-46" target="pVMCiTDg7z46em1MxIxY-44" edge="1">
          <mxGeometry width="50" height="50" relative="1" as="geometry">
            <mxPoint x="210" y="55.00000000000003" as="sourcePoint" />
            <mxPoint x="319" y="35.00000000000003" as="targetPoint" />
          </mxGeometry>
        </mxCell>
        <mxCell id="ASljsbczPLoBp7QqAxyb-75" value="Operator" style="edgeLabel;html=1;align=center;verticalAlign=middle;resizable=0;points=[];labelBackgroundColor=none;" parent="pVMCiTDg7z46em1MxIxY-48" vertex="1" connectable="0">
          <mxGeometry x="0.122" relative="1" as="geometry">
            <mxPoint x="-19" y="-14" as="offset" />
          </mxGeometry>
        </mxCell>
        <mxCell id="pVMCiTDg7z46em1MxIxY-49" value="" style="endArrow=none;html=1;rounded=0;entryX=0;entryY=1;entryDx=0;entryDy=0;exitX=1;exitY=0.5;exitDx=0;exitDy=0;" parent="1" source="pVMCiTDg7z46em1MxIxY-46" target="pVMCiTDg7z46em1MxIxY-45" edge="1">
          <mxGeometry width="50" height="50" relative="1" as="geometry">
            <mxPoint x="226" y="70.00000000000003" as="sourcePoint" />
            <mxPoint x="236" y="45.00000000000003" as="targetPoint" />
          </mxGeometry>
        </mxCell>
        <mxCell id="ASljsbczPLoBp7QqAxyb-78" value="&lt;font style=&quot;font-size: 9px;&quot;&gt;Time&lt;br style=&quot;border-color: var(--border-color);&quot;&gt;&lt;span style=&quot;border-color: var(--border-color);&quot;&gt;Modify&lt;/span&gt;&lt;br style=&quot;border-color: var(--border-color);&quot;&gt;&lt;span style=&quot;border-color: var(--border-color);&quot;&gt;Preposition&lt;/span&gt;&lt;/font&gt;" style="edgeLabel;html=1;align=center;verticalAlign=middle;resizable=0;points=[];labelBackgroundColor=none;" parent="pVMCiTDg7z46em1MxIxY-49" vertex="1" connectable="0">
          <mxGeometry x="0.202" y="1" relative="1" as="geometry">
            <mxPoint x="14" y="15" as="offset" />
          </mxGeometry>
        </mxCell>
        <mxCell id="pVMCiTDg7z46em1MxIxY-50" value="" style="endArrow=none;html=1;rounded=0;entryX=0;entryY=0;entryDx=0;entryDy=0;exitX=1;exitY=1;exitDx=0;exitDy=0;" parent="1" source="pVMCiTDg7z46em1MxIxY-44" target="pVMCiTDg7z46em1MxIxY-45" edge="1">
          <mxGeometry width="50" height="50" relative="1" as="geometry">
            <mxPoint x="236" y="80.00000000000003" as="sourcePoint" />
            <mxPoint x="246" y="55.00000000000003" as="targetPoint" />
          </mxGeometry>
        </mxCell>
        <mxCell id="ASljsbczPLoBp7QqAxyb-77" value="ARGX" style="edgeLabel;html=1;align=center;verticalAlign=middle;resizable=0;points=[];labelBackgroundColor=none;" parent="pVMCiTDg7z46em1MxIxY-50" vertex="1" connectable="0">
          <mxGeometry x="-0.2172" y="1" relative="1" as="geometry">
            <mxPoint x="16" y="-3" as="offset" />
          </mxGeometry>
        </mxCell>
        <mxCell id="pVMCiTDg7z46em1MxIxY-102" value="" style="edgeStyle=orthogonalEdgeStyle;rounded=0;orthogonalLoop=1;jettySize=auto;html=1;" parent="1" source="pVMCiTDg7z46em1MxIxY-96" target="pVMCiTDg7z46em1MxIxY-101" edge="1">
          <mxGeometry relative="1" as="geometry" />
        </mxCell>
        <mxCell id="pVMCiTDg7z46em1MxIxY-96" value="&lt;font style=&quot;font-size: 10px;&quot;&gt;[x&lt;sub style=&quot;border-color: var(--border-color); color: rgb(51, 51, 51);&quot;&gt;1&lt;/sub&gt;&lt;span style=&quot;color: rgb(51, 51, 51);&quot;&gt;] [x&lt;/span&gt;&lt;sub style=&quot;border-color: var(--border-color); color: rgb(51, 51, 51);&quot;&gt;2&lt;/sub&gt;&lt;span style=&quot;color: rgb(51, 51, 51);&quot;&gt;] [x&lt;/span&gt;&lt;sub style=&quot;border-color: var(--border-color); color: rgb(51, 51, 51);&quot;&gt;3&lt;/sub&gt;&lt;span style=&quot;color: rgb(51, 51, 51);&quot;&gt;]&amp;nbsp;&lt;/span&gt;[y&lt;sub style=&quot;border-color: var(--border-color); color: rgb(51, 51, 51);&quot;&gt;1&lt;/sub&gt;]&amp;nbsp;&lt;span style=&quot;background-color: rgb(248, 206, 204);&quot;&gt;&lt;span style=&quot;color: rgb(51, 51, 51);&quot;&gt;[&lt;/span&gt;&lt;font style=&quot;border-color: var(--border-color); font-size: 10px;&quot; color=&quot;#cc0000&quot;&gt;&lt;b style=&quot;border-color: var(--border-color);&quot;&gt;y&lt;sub style=&quot;border-color: var(--border-color);&quot;&gt;2&lt;/sub&gt;&lt;/b&gt;&lt;/font&gt;&lt;span style=&quot;color: rgb(51, 51, 51);&quot;&gt;]&lt;/span&gt;&lt;/span&gt;&lt;span style=&quot;color: rgb(51, 51, 51);&quot;&gt;&amp;nbsp;[y&lt;/span&gt;&lt;sub style=&quot;border-color: var(--border-color); color: rgb(51, 51, 51);&quot;&gt;3&lt;/sub&gt;&lt;span style=&quot;color: rgb(51, 51, 51);&quot;&gt;]&lt;/span&gt;&amp;nbsp;[z&lt;sub style=&quot;border-color: var(--border-color); color: rgb(51, 51, 51);&quot;&gt;1&lt;/sub&gt;&lt;span style=&quot;color: rgb(51, 51, 51);&quot;&gt;] [z&lt;/span&gt;&lt;sub style=&quot;border-color: var(--border-color); color: rgb(51, 51, 51);&quot;&gt;2&lt;/sub&gt;&lt;span style=&quot;color: rgb(51, 51, 51);&quot;&gt;]&lt;/span&gt;&lt;/font&gt;" style="rounded=1;whiteSpace=wrap;html=1;verticalAlign=top;" parent="1" vertex="1">
          <mxGeometry x="652.74" y="212.00000000000003" width="150.76" height="30" as="geometry" />
        </mxCell>
        <mxCell id="pVMCiTDg7z46em1MxIxY-104" value="" style="edgeStyle=orthogonalEdgeStyle;rounded=0;orthogonalLoop=1;jettySize=auto;html=1;" parent="1" source="pVMCiTDg7z46em1MxIxY-101" target="pVMCiTDg7z46em1MxIxY-103" edge="1">
          <mxGeometry relative="1" as="geometry" />
        </mxCell>
        <mxCell id="pVMCiTDg7z46em1MxIxY-101" value="Boundary Loss" style="whiteSpace=wrap;html=1;verticalAlign=top;rounded=1;" parent="1" vertex="1">
          <mxGeometry x="651.74" y="261.25" width="151.76" height="37" as="geometry" />
        </mxCell>
        <mxCell id="pVMCiTDg7z46em1MxIxY-103" value="Classification" style="whiteSpace=wrap;html=1;verticalAlign=top;rounded=1;" parent="1" vertex="1">
          <mxGeometry x="651.74" y="317.5" width="151.76" height="37.5" as="geometry" />
        </mxCell>
        <mxCell id="L6vsH4I87ayAv4RI-xaD-26" value="" style="rounded=0;whiteSpace=wrap;html=1;fillColor=#fcfcfc;dashed=1;strokeColor=default;glass=0;" parent="1" vertex="1">
          <mxGeometry x="568" y="14" width="236.74" height="71" as="geometry" />
        </mxCell>
        <mxCell id="L6vsH4I87ayAv4RI-xaD-27" value="" style="ellipse;whiteSpace=wrap;html=1;aspect=fixed;fillColor=#f8cecc;strokeColor=#b85450;" parent="1" vertex="1">
          <mxGeometry x="593.74" y="38" width="18" height="18" as="geometry" />
        </mxCell>
        <mxCell id="L6vsH4I87ayAv4RI-xaD-30" value="Trigger rep" style="text;html=1;strokeColor=none;fillColor=none;align=center;verticalAlign=middle;whiteSpace=wrap;rounded=0;" parent="1" vertex="1">
          <mxGeometry x="716.74" y="32" width="71" height="30" as="geometry" />
        </mxCell>
        <mxCell id="L6vsH4I87ayAv4RI-xaD-42" value="&lt;span style=&quot;background-color: rgb(248, 206, 204);&quot;&gt;[&lt;font style=&quot;border-color: var(--border-color);&quot; color=&quot;#cc0000&quot;&gt;&lt;b style=&quot;border-color: var(--border-color);&quot;&gt;y&lt;sub style=&quot;border-color: var(--border-color);&quot;&gt;2&lt;/sub&gt;&lt;/b&gt;&lt;/font&gt;&lt;span style=&quot;color: rgb(51, 51, 51);&quot;&gt;]&lt;/span&gt;&lt;/span&gt;" style="text;html=1;strokeColor=none;fillColor=none;align=center;verticalAlign=middle;whiteSpace=wrap;rounded=0;" parent="1" vertex="1">
          <mxGeometry x="588.24" y="14" width="31" height="30" as="geometry" />
        </mxCell>
        <mxCell id="L6vsH4I87ayAv4RI-xaD-43" value="Trigger" style="text;html=1;strokeColor=none;fillColor=none;align=center;verticalAlign=middle;whiteSpace=wrap;rounded=0;" parent="1" vertex="1">
          <mxGeometry x="706.74" y="13" width="71" height="30" as="geometry" />
        </mxCell>
        <mxCell id="L6vsH4I87ayAv4RI-xaD-46" value="" style="ellipse;whiteSpace=wrap;html=1;aspect=fixed;fillColor=#60a917;fontColor=#ffffff;strokeColor=#2D7600;" parent="1" vertex="1">
          <mxGeometry x="593.74" y="59" width="18" height="18" as="geometry" />
        </mxCell>
        <mxCell id="L6vsH4I87ayAv4RI-xaD-47" value="" style="ellipse;whiteSpace=wrap;html=1;aspect=fixed;fillColor=#fa6800;fontColor=#000000;strokeColor=#C73500;" parent="1" vertex="1">
          <mxGeometry x="616.74" y="59" width="18" height="18" as="geometry" />
        </mxCell>
        <mxCell id="L6vsH4I87ayAv4RI-xaD-48" value="" style="ellipse;whiteSpace=wrap;html=1;aspect=fixed;fillColor=#1ba1e2;fontColor=#ffffff;strokeColor=#006EAF;" parent="1" vertex="1">
          <mxGeometry x="639.74" y="59" width="18" height="18" as="geometry" />
        </mxCell>
        <mxCell id="L6vsH4I87ayAv4RI-xaD-49" value="Span rep" style="text;html=1;strokeColor=none;fillColor=none;align=center;verticalAlign=middle;whiteSpace=wrap;rounded=0;" parent="1" vertex="1">
          <mxGeometry x="707.24" y="56" width="81" height="24" as="geometry" />
        </mxCell>
        <mxCell id="L6vsH4I87ayAv4RI-xaD-54" value="&lt;font style=&quot;font-size: 15px;&quot;&gt;&lt;b&gt;Local Graph&lt;/b&gt;&lt;/font&gt;" style="text;html=1;align=center;verticalAlign=middle;resizable=0;points=[];autosize=1;strokeColor=none;fillColor=none;" parent="1" vertex="1">
          <mxGeometry x="332.24" y="25" width="110" height="30" as="geometry" />
        </mxCell>
        <mxCell id="L6vsH4I87ayAv4RI-xaD-59" value="" style="rounded=1;whiteSpace=wrap;html=1;fillColor=#fff2cc;strokeColor=#d6b656;" parent="1" vertex="1">
          <mxGeometry x="484.74" y="168" width="146.26" height="119" as="geometry" />
        </mxCell>
        <mxCell id="L6vsH4I87ayAv4RI-xaD-80" value="" style="endArrow=classic;html=1;rounded=0;strokeColor=#ff0000;exitX=0;exitY=0.5;exitDx=0;exitDy=0;" parent="1" source="L6vsH4I87ayAv4RI-xaD-59" edge="1">
          <mxGeometry width="50" height="50" relative="1" as="geometry">
            <mxPoint x="486.74" y="227.80999999999995" as="sourcePoint" />
            <mxPoint x="536.74" y="228.10000000000002" as="targetPoint" />
          </mxGeometry>
        </mxCell>
        <mxCell id="L6vsH4I87ayAv4RI-xaD-81" value="&lt;font color=&quot;#ff0000&quot;&gt;V&lt;sub&gt;local&lt;/sub&gt;&lt;/font&gt;" style="edgeLabel;html=1;align=center;verticalAlign=middle;resizable=0;points=[];labelBackgroundColor=none;" parent="L6vsH4I87ayAv4RI-xaD-80" vertex="1" connectable="0">
          <mxGeometry x="-0.3786" y="1" relative="1" as="geometry">
            <mxPoint x="4" y="-10" as="offset" />
          </mxGeometry>
        </mxCell>
        <mxCell id="L6vsH4I87ayAv4RI-xaD-82" value="" style="endArrow=classic;html=1;rounded=0;strokeColor=#0000ff;exitX=0.014;exitY=0.897;exitDx=0;exitDy=0;exitPerimeter=0;" parent="1" source="L6vsH4I87ayAv4RI-xaD-59" edge="1">
          <mxGeometry width="50" height="50" relative="1" as="geometry">
            <mxPoint x="496" y="275" as="sourcePoint" />
            <mxPoint x="536.74" y="275.1" as="targetPoint" />
          </mxGeometry>
        </mxCell>
        <mxCell id="L6vsH4I87ayAv4RI-xaD-83" value="&lt;font color=&quot;#0000ff&quot;&gt;Q&lt;sub&gt;global&lt;/sub&gt;&lt;/font&gt;" style="edgeLabel;html=1;align=center;verticalAlign=middle;resizable=0;points=[];labelBackgroundColor=none;" parent="L6vsH4I87ayAv4RI-xaD-82" vertex="1" connectable="0">
          <mxGeometry x="-0.3214" y="1" relative="1" as="geometry">
            <mxPoint x="4" y="-11" as="offset" />
          </mxGeometry>
        </mxCell>
        <mxCell id="L6vsH4I87ayAv4RI-xaD-84" value="" style="endArrow=classic;html=1;rounded=0;edgeStyle=orthogonalEdgeStyle;exitX=0.008;exitY=0.091;exitDx=0;exitDy=0;exitPerimeter=0;" parent="1" source="L6vsH4I87ayAv4RI-xaD-59" edge="1">
          <mxGeometry width="50" height="50" relative="1" as="geometry">
            <mxPoint x="495.74" y="179.1" as="sourcePoint" />
            <mxPoint x="585.74" y="222.1" as="targetPoint" />
            <Array as="points">
              <mxPoint x="575" y="179" />
              <mxPoint x="575" y="222" />
            </Array>
          </mxGeometry>
        </mxCell>
        <mxCell id="L6vsH4I87ayAv4RI-xaD-93" value="local rep" style="edgeLabel;html=1;align=center;verticalAlign=middle;resizable=0;points=[];labelBackgroundColor=none;" parent="L6vsH4I87ayAv4RI-xaD-84" vertex="1" connectable="0">
          <mxGeometry x="-0.4284" relative="1" as="geometry">
            <mxPoint x="-13" y="8" as="offset" />
          </mxGeometry>
        </mxCell>
        <mxCell id="L6vsH4I87ayAv4RI-xaD-86" value="" style="shape=sumEllipse;perimeter=ellipsePerimeter;whiteSpace=wrap;html=1;backgroundOutline=1;" parent="1" vertex="1">
          <mxGeometry x="537.74" y="237.85000000000002" width="28.5" height="28.5" as="geometry" />
        </mxCell>
        <mxCell id="L6vsH4I87ayAv4RI-xaD-87" value="" style="shape=orEllipse;perimeter=ellipsePerimeter;whiteSpace=wrap;html=1;backgroundOutline=1;" parent="1" vertex="1">
          <mxGeometry x="586.74" y="206.85000000000002" width="41.15" height="41.15" as="geometry" />
        </mxCell>
        <mxCell id="L6vsH4I87ayAv4RI-xaD-88" value="" style="endArrow=classic;html=1;rounded=0;strokeColor=#00ff00;exitX=0.001;exitY=0.696;exitDx=0;exitDy=0;exitPerimeter=0;" parent="1" source="L6vsH4I87ayAv4RI-xaD-59" edge="1">
          <mxGeometry width="50" height="50" relative="1" as="geometry">
            <mxPoint x="496" y="251" as="sourcePoint" />
            <mxPoint x="536.74" y="251.39" as="targetPoint" />
          </mxGeometry>
        </mxCell>
        <mxCell id="L6vsH4I87ayAv4RI-xaD-89" value="&lt;font color=&quot;#00ff00&quot;&gt;K&lt;sub style=&quot;&quot;&gt;local&lt;/sub&gt;&lt;/font&gt;" style="edgeLabel;html=1;align=center;verticalAlign=middle;resizable=0;points=[];labelBackgroundColor=none;" parent="L6vsH4I87ayAv4RI-xaD-88" vertex="1" connectable="0">
          <mxGeometry x="-0.3786" y="1" relative="1" as="geometry">
            <mxPoint x="4" y="-10" as="offset" />
          </mxGeometry>
        </mxCell>
        <mxCell id="L6vsH4I87ayAv4RI-xaD-90" value="Attention" style="text;html=1;align=center;verticalAlign=middle;resizable=0;points=[];autosize=1;strokeColor=none;fillColor=none;" parent="1" vertex="1">
          <mxGeometry x="529.74" y="258" width="70" height="30" as="geometry" />
        </mxCell>
        <mxCell id="L6vsH4I87ayAv4RI-xaD-91" style="edgeStyle=orthogonalEdgeStyle;rounded=0;orthogonalLoop=1;jettySize=auto;html=1;exitX=1;exitY=0.5;exitDx=0;exitDy=0;" parent="1" source="L6vsH4I87ayAv4RI-xaD-86" edge="1">
          <mxGeometry relative="1" as="geometry">
            <mxPoint x="557.399939819834" y="253.0014141414141" as="sourcePoint" />
            <mxPoint x="586" y="232" as="targetPoint" />
            <Array as="points">
              <mxPoint x="575" y="252" />
              <mxPoint x="575" y="232" />
            </Array>
          </mxGeometry>
        </mxCell>
        <mxCell id="L6vsH4I87ayAv4RI-xaD-92" value="" style="shape=flexArrow;endArrow=classic;html=1;rounded=0;endWidth=6.857142857142857;endSize=3.6685714285714286;" parent="1" edge="1">
          <mxGeometry width="50" height="50" relative="1" as="geometry">
            <mxPoint x="632" y="227.38000000000005" as="sourcePoint" />
            <mxPoint x="652" y="227.38000000000005" as="targetPoint" />
          </mxGeometry>
        </mxCell>
        <mxCell id="oEz1iu90TZtMotsWFyNv-2" value="Add" style="text;html=1;align=center;verticalAlign=middle;resizable=0;points=[];autosize=1;strokeColor=none;fillColor=none;" parent="1" vertex="1">
          <mxGeometry x="585.74" y="181" width="40" height="30" as="geometry" />
        </mxCell>
        <mxCell id="ASljsbczPLoBp7QqAxyb-6" value="" style="endArrow=classic;html=1;rounded=0;" parent="1" edge="1">
          <mxGeometry width="50" height="50" relative="1" as="geometry">
            <mxPoint x="91.67000000000002" y="218" as="sourcePoint" />
            <mxPoint x="91.67000000000002" y="249" as="targetPoint" />
          </mxGeometry>
        </mxCell>
        <mxCell id="ASljsbczPLoBp7QqAxyb-13" value="" style="ellipse;whiteSpace=wrap;html=1;aspect=fixed;fillColor=#f8cecc;strokeColor=#b85450;" parent="1" vertex="1">
          <mxGeometry x="376" y="123.00000000000003" width="28" height="28" as="geometry" />
        </mxCell>
        <mxCell id="ASljsbczPLoBp7QqAxyb-14" value="" style="ellipse;whiteSpace=wrap;html=1;aspect=fixed;fillColor=#1ba1e2;fontColor=#ffffff;strokeColor=#006EAF;" parent="1" vertex="1">
          <mxGeometry x="419" y="163.00000000000003" width="28" height="28" as="geometry" />
        </mxCell>
        <mxCell id="ASljsbczPLoBp7QqAxyb-15" value="" style="ellipse;whiteSpace=wrap;html=1;aspect=fixed;fillColor=#60a917;fontColor=#ffffff;strokeColor=#2D7600;" parent="1" vertex="1">
          <mxGeometry x="347" y="197.00000000000003" width="28" height="28" as="geometry" />
        </mxCell>
        <mxCell id="ASljsbczPLoBp7QqAxyb-16" value="" style="endArrow=none;html=1;rounded=0;entryX=0.5;entryY=1;entryDx=0;entryDy=0;exitX=1;exitY=0;exitDx=0;exitDy=0;" parent="1" source="ASljsbczPLoBp7QqAxyb-15" target="ASljsbczPLoBp7QqAxyb-13" edge="1">
          <mxGeometry width="50" height="50" relative="1" as="geometry">
            <mxPoint x="353" y="158.00000000000003" as="sourcePoint" />
            <mxPoint x="462" y="138.00000000000003" as="targetPoint" />
          </mxGeometry>
        </mxCell>
        <mxCell id="ASljsbczPLoBp7QqAxyb-79" value="Operator" style="edgeLabel;html=1;align=center;verticalAlign=middle;resizable=0;points=[];labelBackgroundColor=none;" parent="ASljsbczPLoBp7QqAxyb-16" vertex="1" connectable="0">
          <mxGeometry x="0.2236" relative="1" as="geometry">
            <mxPoint x="-22" y="-7" as="offset" />
          </mxGeometry>
        </mxCell>
        <mxCell id="ASljsbczPLoBp7QqAxyb-17" value="" style="endArrow=none;html=1;rounded=0;entryX=0;entryY=1;entryDx=0;entryDy=0;exitX=1;exitY=0.5;exitDx=0;exitDy=0;dashed=1;" parent="1" source="ASljsbczPLoBp7QqAxyb-15" target="ASljsbczPLoBp7QqAxyb-14" edge="1">
          <mxGeometry width="50" height="50" relative="1" as="geometry">
            <mxPoint x="369" y="173.00000000000003" as="sourcePoint" />
            <mxPoint x="379" y="148.00000000000003" as="targetPoint" />
          </mxGeometry>
        </mxCell>
        <mxCell id="BfeE-0904GcRxi97lmfi-1" value="❌" style="edgeLabel;html=1;align=center;verticalAlign=middle;resizable=0;points=[];labelBackgroundColor=none;fontSize=16;" vertex="1" connectable="0" parent="ASljsbczPLoBp7QqAxyb-17">
          <mxGeometry x="0.33" relative="1" as="geometry">
            <mxPoint x="-3" y="2" as="offset" />
          </mxGeometry>
        </mxCell>
        <mxCell id="ASljsbczPLoBp7QqAxyb-18" value="" style="endArrow=none;html=1;rounded=0;entryX=0;entryY=0;entryDx=0;entryDy=0;exitX=1;exitY=1;exitDx=0;exitDy=0;" parent="1" source="ASljsbczPLoBp7QqAxyb-13" target="ASljsbczPLoBp7QqAxyb-14" edge="1">
          <mxGeometry width="50" height="50" relative="1" as="geometry">
            <mxPoint x="379" y="183.00000000000003" as="sourcePoint" />
            <mxPoint x="389" y="158.00000000000003" as="targetPoint" />
          </mxGeometry>
        </mxCell>
        <mxCell id="ASljsbczPLoBp7QqAxyb-81" value="ARGX" style="edgeLabel;html=1;align=center;verticalAlign=middle;resizable=0;points=[];labelBackgroundColor=none;" parent="ASljsbczPLoBp7QqAxyb-18" vertex="1" connectable="0">
          <mxGeometry x="-0.0683" y="1" relative="1" as="geometry">
            <mxPoint x="13" y="-5" as="offset" />
          </mxGeometry>
        </mxCell>
        <mxCell id="ASljsbczPLoBp7QqAxyb-19" value="" style="rounded=1;whiteSpace=wrap;html=1;fillStyle=auto;dashed=1;glass=0;perimeterSpacing=0;resizeHeight=0;fillColor=#ffe6cc;strokeColor=#d79b00;" parent="1" vertex="1">
          <mxGeometry x="189" y="242.10000000000002" width="271" height="230" as="geometry" />
        </mxCell>
        <mxCell id="ASljsbczPLoBp7QqAxyb-20" value="" style="rounded=1;whiteSpace=wrap;html=1;fillColor=#f5f5f5;fontColor=#333333;strokeColor=#666666;" parent="1" vertex="1">
          <mxGeometry x="198" y="250.10000000000002" width="110" height="110" as="geometry" />
        </mxCell>
        <mxCell id="ASljsbczPLoBp7QqAxyb-21" value="" style="rounded=1;whiteSpace=wrap;html=1;fillColor=#d5e8d4;strokeColor=#82b366;" parent="1" vertex="1">
          <mxGeometry x="340.24" y="354.20000000000005" width="110" height="110" as="geometry" />
        </mxCell>
        <mxCell id="ASljsbczPLoBp7QqAxyb-22" value="" style="edgeStyle=none;orthogonalLoop=1;jettySize=auto;html=1;rounded=0;entryX=-0.024;entryY=0.115;entryDx=0;entryDy=0;entryPerimeter=0;exitX=1;exitY=1;exitDx=0;exitDy=0;" parent="1" source="ASljsbczPLoBp7QqAxyb-20" target="ASljsbczPLoBp7QqAxyb-21" edge="1">
          <mxGeometry width="100" relative="1" as="geometry">
            <mxPoint x="303" y="297.20000000000005" as="sourcePoint" />
            <mxPoint x="333" y="337.20000000000005" as="targetPoint" />
            <Array as="points" />
          </mxGeometry>
        </mxCell>
        <mxCell id="ASljsbczPLoBp7QqAxyb-23" value="Prune" style="edgeLabel;html=1;align=center;verticalAlign=middle;resizable=0;points=[];labelBackgroundColor=#ffe6cc;" parent="ASljsbczPLoBp7QqAxyb-22" vertex="1" connectable="0">
          <mxGeometry x="-0.4236" relative="1" as="geometry">
            <mxPoint x="-16" y="13" as="offset" />
          </mxGeometry>
        </mxCell>
        <mxCell id="ASljsbczPLoBp7QqAxyb-24" value="" style="ellipse;whiteSpace=wrap;html=1;aspect=fixed;fillColor=#f8cecc;strokeColor=#b85450;" parent="1" vertex="1">
          <mxGeometry x="246" y="251.10000000000002" width="28" height="28" as="geometry" />
        </mxCell>
        <mxCell id="ASljsbczPLoBp7QqAxyb-25" value="" style="ellipse;whiteSpace=wrap;html=1;aspect=fixed;fillColor=#1ba1e2;fontColor=#ffffff;strokeColor=#006EAF;" parent="1" vertex="1">
          <mxGeometry x="278" y="281.1" width="28" height="28" as="geometry" />
        </mxCell>
        <mxCell id="ASljsbczPLoBp7QqAxyb-26" value="" style="ellipse;whiteSpace=wrap;html=1;aspect=fixed;fillColor=#60a917;fontColor=#ffffff;strokeColor=#2D7600;" parent="1" vertex="1">
          <mxGeometry x="200" y="285.1" width="28" height="28" as="geometry" />
        </mxCell>
        <mxCell id="ASljsbczPLoBp7QqAxyb-27" value="" style="endArrow=none;html=1;rounded=0;exitX=1;exitY=0;exitDx=0;exitDy=0;entryX=0.262;entryY=0.93;entryDx=0;entryDy=0;entryPerimeter=0;" parent="1" source="ASljsbczPLoBp7QqAxyb-26" target="ASljsbczPLoBp7QqAxyb-24" edge="1">
          <mxGeometry width="50" height="50" relative="1" as="geometry">
            <mxPoint x="210" y="288.1" as="sourcePoint" />
            <mxPoint x="234" y="279.1" as="targetPoint" />
          </mxGeometry>
        </mxCell>
        <mxCell id="ASljsbczPLoBp7QqAxyb-51" value="Operator" style="edgeLabel;html=1;align=center;verticalAlign=middle;resizable=0;points=[];labelBackgroundColor=none;" parent="ASljsbczPLoBp7QqAxyb-27" vertex="1" connectable="0">
          <mxGeometry x="-0.0863" relative="1" as="geometry">
            <mxPoint x="-15" y="-11" as="offset" />
          </mxGeometry>
        </mxCell>
        <mxCell id="ASljsbczPLoBp7QqAxyb-29" value="" style="endArrow=none;html=1;rounded=0;entryX=0;entryY=0;entryDx=0;entryDy=0;exitX=1;exitY=1;exitDx=0;exitDy=0;" parent="1" source="ASljsbczPLoBp7QqAxyb-24" target="ASljsbczPLoBp7QqAxyb-25" edge="1">
          <mxGeometry width="50" height="50" relative="1" as="geometry">
            <mxPoint x="236" y="313.1" as="sourcePoint" />
            <mxPoint x="246" y="288.1" as="targetPoint" />
          </mxGeometry>
        </mxCell>
        <mxCell id="ASljsbczPLoBp7QqAxyb-49" value="ARGX" style="edgeLabel;html=1;align=center;verticalAlign=middle;resizable=0;points=[];labelBackgroundColor=none;" parent="ASljsbczPLoBp7QqAxyb-29" vertex="1" connectable="0">
          <mxGeometry x="-0.076" relative="1" as="geometry">
            <mxPoint x="12" y="-7" as="offset" />
          </mxGeometry>
        </mxCell>
        <mxCell id="ASljsbczPLoBp7QqAxyb-37" value="" style="ellipse;whiteSpace=wrap;html=1;aspect=fixed;fillColor=#fa6800;fontColor=#000000;strokeColor=#C73500;" parent="1" vertex="1">
          <mxGeometry x="215" y="328.1" width="28" height="28" as="geometry" />
        </mxCell>
        <mxCell id="ASljsbczPLoBp7QqAxyb-39" value="" style="endArrow=none;html=1;rounded=0;entryX=0.552;entryY=1.001;entryDx=0;entryDy=0;entryPerimeter=0;exitX=0.532;exitY=-0.029;exitDx=0;exitDy=0;exitPerimeter=0;" parent="1" source="ASljsbczPLoBp7QqAxyb-37" target="ASljsbczPLoBp7QqAxyb-24" edge="1">
          <mxGeometry width="50" height="50" relative="1" as="geometry">
            <mxPoint x="264" y="319.1" as="sourcePoint" />
            <mxPoint x="314" y="269.1" as="targetPoint" />
          </mxGeometry>
        </mxCell>
        <mxCell id="ASljsbczPLoBp7QqAxyb-52" value="ARGX" style="edgeLabel;html=1;align=center;verticalAlign=middle;resizable=0;points=[];labelBackgroundColor=#f5f5f5;" parent="ASljsbczPLoBp7QqAxyb-39" vertex="1" connectable="0">
          <mxGeometry x="0.1382" relative="1" as="geometry">
            <mxPoint x="-3" y="7" as="offset" />
          </mxGeometry>
        </mxCell>
        <mxCell id="ASljsbczPLoBp7QqAxyb-47" value="Time&lt;br style=&quot;border-color: var(--border-color);&quot;&gt;&lt;span style=&quot;&quot;&gt;Modify&lt;/span&gt;&lt;br style=&quot;border-color: var(--border-color);&quot;&gt;&lt;span style=&quot;&quot;&gt;Preposition&lt;/span&gt;" style="endArrow=none;html=1;rounded=0;entryX=0.301;entryY=0.951;entryDx=0;entryDy=0;entryPerimeter=0;exitX=1;exitY=0;exitDx=0;exitDy=0;labelBackgroundColor=none;" parent="1" source="ASljsbczPLoBp7QqAxyb-37" target="ASljsbczPLoBp7QqAxyb-25" edge="1">
          <mxGeometry x="0.0035" y="-23" width="50" height="50" relative="1" as="geometry">
            <mxPoint x="284" y="359.1" as="sourcePoint" />
            <mxPoint x="334" y="309.1" as="targetPoint" />
            <mxPoint as="offset" />
          </mxGeometry>
        </mxCell>
        <mxCell id="ASljsbczPLoBp7QqAxyb-53" value="" style="ellipse;whiteSpace=wrap;html=1;aspect=fixed;fillColor=#f8cecc;strokeColor=#b85450;" parent="1" vertex="1">
          <mxGeometry x="389" y="356.20000000000005" width="28" height="28" as="geometry" />
        </mxCell>
        <mxCell id="ASljsbczPLoBp7QqAxyb-54" value="" style="ellipse;whiteSpace=wrap;html=1;aspect=fixed;fillColor=#1ba1e2;fontColor=#ffffff;strokeColor=#006EAF;" parent="1" vertex="1">
          <mxGeometry x="421" y="386.20000000000005" width="28" height="28" as="geometry" />
        </mxCell>
        <mxCell id="ASljsbczPLoBp7QqAxyb-55" value="" style="ellipse;whiteSpace=wrap;html=1;aspect=fixed;fillColor=#60a917;fontColor=#ffffff;strokeColor=#2D7600;" parent="1" vertex="1">
          <mxGeometry x="343" y="390.20000000000005" width="28" height="28" as="geometry" />
        </mxCell>
        <mxCell id="ASljsbczPLoBp7QqAxyb-56" value="" style="endArrow=none;html=1;rounded=0;exitX=1;exitY=0;exitDx=0;exitDy=0;entryX=0.262;entryY=0.93;entryDx=0;entryDy=0;entryPerimeter=0;" parent="1" source="ASljsbczPLoBp7QqAxyb-55" target="ASljsbczPLoBp7QqAxyb-53" edge="1">
          <mxGeometry width="50" height="50" relative="1" as="geometry">
            <mxPoint x="353" y="393.20000000000005" as="sourcePoint" />
            <mxPoint x="377" y="384.20000000000005" as="targetPoint" />
          </mxGeometry>
        </mxCell>
        <mxCell id="ASljsbczPLoBp7QqAxyb-57" value="Operator" style="edgeLabel;html=1;align=center;verticalAlign=middle;resizable=0;points=[];labelBackgroundColor=none;" parent="ASljsbczPLoBp7QqAxyb-56" vertex="1" connectable="0">
          <mxGeometry x="-0.0863" relative="1" as="geometry">
            <mxPoint x="-15" y="-11" as="offset" />
          </mxGeometry>
        </mxCell>
        <mxCell id="ASljsbczPLoBp7QqAxyb-58" value="" style="endArrow=none;html=1;rounded=0;entryX=0;entryY=0;entryDx=0;entryDy=0;exitX=1;exitY=1;exitDx=0;exitDy=0;" parent="1" source="ASljsbczPLoBp7QqAxyb-53" target="ASljsbczPLoBp7QqAxyb-54" edge="1">
          <mxGeometry width="50" height="50" relative="1" as="geometry">
            <mxPoint x="379" y="418.20000000000005" as="sourcePoint" />
            <mxPoint x="389" y="393.20000000000005" as="targetPoint" />
          </mxGeometry>
        </mxCell>
        <mxCell id="ASljsbczPLoBp7QqAxyb-59" value="ARGX" style="edgeLabel;html=1;align=center;verticalAlign=middle;resizable=0;points=[];labelBackgroundColor=none;" parent="ASljsbczPLoBp7QqAxyb-58" vertex="1" connectable="0">
          <mxGeometry x="-0.076" relative="1" as="geometry">
            <mxPoint x="12" y="-7" as="offset" />
          </mxGeometry>
        </mxCell>
        <mxCell id="ASljsbczPLoBp7QqAxyb-60" value="" style="ellipse;whiteSpace=wrap;html=1;aspect=fixed;fillColor=#fa6800;fontColor=#000000;strokeColor=#C73500;" parent="1" vertex="1">
          <mxGeometry x="358" y="433.20000000000005" width="28" height="28" as="geometry" />
        </mxCell>
        <mxCell id="ASljsbczPLoBp7QqAxyb-61" value="" style="endArrow=none;html=1;rounded=0;entryX=0.552;entryY=1.001;entryDx=0;entryDy=0;entryPerimeter=0;exitX=0.532;exitY=-0.029;exitDx=0;exitDy=0;exitPerimeter=0;" parent="1" source="ASljsbczPLoBp7QqAxyb-60" target="ASljsbczPLoBp7QqAxyb-53" edge="1">
          <mxGeometry width="50" height="50" relative="1" as="geometry">
            <mxPoint x="407" y="424.20000000000005" as="sourcePoint" />
            <mxPoint x="457" y="374.20000000000005" as="targetPoint" />
          </mxGeometry>
        </mxCell>
        <mxCell id="ASljsbczPLoBp7QqAxyb-62" value="ARGX" style="edgeLabel;html=1;align=center;verticalAlign=middle;resizable=0;points=[];labelBackgroundColor=#d5e8d4;" parent="ASljsbczPLoBp7QqAxyb-61" vertex="1" connectable="0">
          <mxGeometry x="0.1382" relative="1" as="geometry">
            <mxPoint x="-3" y="7" as="offset" />
          </mxGeometry>
        </mxCell>
        <mxCell id="ASljsbczPLoBp7QqAxyb-63" value="" style="endArrow=none;html=1;rounded=0;entryX=0.301;entryY=0.951;entryDx=0;entryDy=0;entryPerimeter=0;exitX=1;exitY=0;exitDx=0;exitDy=0;labelBackgroundColor=none;dashed=1;" parent="1" source="ASljsbczPLoBp7QqAxyb-60" target="ASljsbczPLoBp7QqAxyb-54" edge="1">
          <mxGeometry x="0.0035" y="-23" width="50" height="50" relative="1" as="geometry">
            <mxPoint x="427" y="464.20000000000005" as="sourcePoint" />
            <mxPoint x="477" y="414.20000000000005" as="targetPoint" />
            <mxPoint as="offset" />
          </mxGeometry>
        </mxCell>
        <mxCell id="BfeE-0904GcRxi97lmfi-2" value="❌" style="edgeLabel;html=1;align=center;verticalAlign=middle;resizable=0;points=[];labelBackgroundColor=none;fontSize=16;" vertex="1" connectable="0" parent="ASljsbczPLoBp7QqAxyb-63">
          <mxGeometry x="0.2642" y="2" relative="1" as="geometry">
            <mxPoint x="-2" y="4" as="offset" />
          </mxGeometry>
        </mxCell>
        <mxCell id="ASljsbczPLoBp7QqAxyb-65" value="&lt;b&gt;&lt;font style=&quot;font-size: 15px;&quot;&gt;Global Graph&lt;/font&gt;&lt;/b&gt;" style="text;html=1;align=center;verticalAlign=middle;resizable=0;points=[];autosize=1;strokeColor=none;fillColor=none;" parent="1" vertex="1">
          <mxGeometry x="330.24" y="263.1" width="120" height="30" as="geometry" />
        </mxCell>
        <mxCell id="ASljsbczPLoBp7QqAxyb-69" value="" style="shape=crossbar;whiteSpace=wrap;html=1;rounded=1;" parent="1" vertex="1">
          <mxGeometry x="16" y="471" width="170" height="20" as="geometry" />
        </mxCell>
        <mxCell id="ASljsbczPLoBp7QqAxyb-84" value="" style="shape=crossbar;whiteSpace=wrap;html=1;rounded=1;" parent="1" vertex="1">
          <mxGeometry x="193" y="471" width="275" height="20" as="geometry" />
        </mxCell>
        <mxCell id="ASljsbczPLoBp7QqAxyb-89" value="&lt;span style=&quot;color: rgb(0, 0, 0); font-family: Helvetica; font-style: normal; font-variant-ligatures: normal; font-variant-caps: normal; font-weight: 400; letter-spacing: normal; orphans: 2; text-align: center; text-indent: 0px; text-transform: none; widows: 2; word-spacing: 0px; -webkit-text-stroke-width: 0px; background-color: rgb(255, 255, 255); text-decoration-thickness: initial; text-decoration-style: initial; text-decoration-color: initial; float: none; display: inline !important;&quot;&gt;&lt;font style=&quot;font-size: 12px;&quot;&gt;AMR Explicit Relation Enhancement Module&lt;/font&gt;&lt;/span&gt;" style="text;whiteSpace=wrap;html=1;" parent="1" vertex="1">
          <mxGeometry x="214" y="481" width="260" height="40" as="geometry" />
        </mxCell>
        <mxCell id="ASljsbczPLoBp7QqAxyb-90" value="&lt;div style=&quot;text-align: center;&quot;&gt;&lt;span style=&quot;background-color: rgb(255, 255, 255);&quot;&gt;Local-Global Encoding Module&lt;/span&gt;&lt;/div&gt;" style="text;whiteSpace=wrap;html=1;" parent="1" vertex="1">
          <mxGeometry x="17" y="481" width="170" height="40" as="geometry" />
        </mxCell>
        <mxCell id="ASljsbczPLoBp7QqAxyb-91" value="" style="shape=crossbar;whiteSpace=wrap;html=1;rounded=1;" parent="1" vertex="1">
          <mxGeometry x="477" y="471" width="161" height="20" as="geometry" />
        </mxCell>
        <mxCell id="ASljsbczPLoBp7QqAxyb-92" value="&lt;span style=&quot;color: rgb(0, 0, 0); font-family: Helvetica; font-style: normal; font-variant-ligatures: normal; font-variant-caps: normal; font-weight: 400; letter-spacing: normal; orphans: 2; text-align: center; text-indent: 0px; text-transform: none; widows: 2; word-spacing: 0px; -webkit-text-stroke-width: 0px; background-color: rgb(255, 255, 255); text-decoration-thickness: initial; text-decoration-style: initial; text-decoration-color: initial; float: none; display: inline !important;&quot;&gt;&lt;font style=&quot;font-size: 12px;&quot;&gt;Attention Fusion Module&lt;/font&gt;&lt;/span&gt;" style="text;whiteSpace=wrap;html=1;" parent="1" vertex="1">
          <mxGeometry x="495" y="481" width="137" height="40" as="geometry" />
        </mxCell>
        <mxCell id="SMVEQulNbsIjLR0KKEGX-9" value="" style="shape=crossbar;whiteSpace=wrap;html=1;rounded=1;" parent="1" vertex="1">
          <mxGeometry x="645" y="471" width="160" height="20" as="geometry" />
        </mxCell>
        <mxCell id="SMVEQulNbsIjLR0KKEGX-10" value="Identification &amp;amp; Classification" style="text;whiteSpace=wrap;html=1;" parent="1" vertex="1">
          <mxGeometry x="647" y="481" width="170" height="40" as="geometry" />
        </mxCell>
      </root>
    </mxGraphModel>
  </diagram>
</mxfile>
